<?xml version="1.0" standalone="no"?>
<!DOCTYPE svg PUBLIC "-//W3C//DTD SVG 20010904//EN"
 "http://www.w3.org/TR/2001/REC-SVG-20010904/DTD/svg10.dtd">
<svg version="1.0" xmlns="http://www.w3.org/2000/svg"
 width="589.000000pt" height="589.000000pt" viewBox="0 0 589.000000 589.000000"
 preserveAspectRatio="xMidYMid meet">

<g transform="translate(0.000000,610.000000) scale(0.100000,-0.100000)"
fill="#000000" stroke="none">
<path d="M3033 5310 c-75 -38 -146 -99 -179 -155 -13 -24 -45 -103 -69 -176
-47 -139 -93 -227 -183 -346 -30 -41 -52 -80 -50 -90 2 -10 17 -25 33 -33 29
-15 28 -15 -60 -22 -164 -12 -180 -14 -229 -38 -63 -32 -157 -133 -195 -212
-32 -65 -171 -561 -179 -635 -2 -23 1 -58 8 -77 18 -55 97 -136 160 -164 71
-32 110 -43 110 -32 0 5 -23 16 -52 25 -58 17 -88 40 -88 66 0 23 150 189 171
189 23 0 199 -88 199 -100 0 -6 -24 -10 -55 -10 -68 0 -100 -14 -118 -54 -20
-42 -29 -96 -17 -96 6 0 10 12 10 26 0 14 4 34 10 44 12 23 71 60 96 60 23 0
203 -77 222 -95 15 -14 8 -73 -12 -101 -12 -15 -21 -14 -123 15 -136 39 -191
40 -250 6 -23 -14 -43 -29 -43 -34 0 -4 -37 -39 -82 -77 -191 -159 -288 -265
-288 -315 0 -29 31 -59 60 -59 9 0 5 5 -9 13 -13 6 -29 20 -35 29 -23 38 48
130 197 255 51 42 119 103 153 134 42 40 72 60 98 64 43 9 118 0 172 -19 l38
-13 -50 -12 c-105 -26 -148 -54 -206 -132 -65 -90 -93 -136 -103 -169 -3 -14
10 4 30 39 42 73 86 134 92 127 3 -2 -1 -14 -7 -26 -6 -11 -10 -26 -7 -33 2
-6 11 11 20 38 24 69 50 92 131 116 39 12 83 28 98 37 22 13 30 14 40 4 9 -9
8 -12 -8 -12 -20 0 -181 -77 -209 -100 -21 -18 -65 -104 -64 -127 0 -10 9 5
20 33 26 67 50 90 151 141 64 33 101 45 163 52 50 6 84 6 90 0 5 -5 22 -9 37
-9 33 0 208 -59 294 -99 38 -18 72 -43 90 -66 65 -83 85 -96 27 -17 -14 18
-22 36 -18 40 4 4 10 1 12 -5 3 -7 10 -13 16 -13 20 0 -34 47 -86 76 -29 15
-90 40 -137 54 l-84 27 364 6 c200 4 428 7 506 7 l144 0 -7 -32 c-3 -18 -15
-43 -27 -56 -26 -29 -134 -80 -244 -117 -46 -15 -81 -29 -78 -32 8 -9 136 37
233 83 97 46 117 66 127 125 6 35 41 76 81 97 66 33 190 22 291 -28 109 -53
163 -137 148 -230 -8 -52 -72 -149 -124 -190 -44 -35 -224 -118 -310 -144
-273 -82 -486 -125 -555 -112 -18 4 -36 14 -40 24 -4 9 -9 62 -12 117 -6 134
-9 147 -35 143 -12 -2 -24 -10 -26 -18 -5 -13 -3 -13 12 -1 9 8 20 11 24 7 4
-4 10 -59 13 -122 5 -80 11 -121 23 -139 l16 -25 -35 0 c-41 0 -43 7 -48 120
l-3 75 -2 -91 c-2 -71 1 -94 13 -104 12 -10 50 -10 172 -2 174 11 241 27 533
131 196 69 219 81 281 146 104 108 137 196 104 282 -34 90 -142 162 -273 185
-86 14 -158 1 -210 -39 l-35 -26 6 24 c3 13 31 154 62 312 61 309 63 340 20
383 -22 22 -33 24 -112 24 l-88 0 -1 58 c0 42 -15 100 -56 222 -48 141 -126
468 -162 681 -9 52 -86 205 -134 265 -47 60 -102 84 -192 84 -43 0 -71 -7
-117 -30z m125 -32 c12 -29 23 -66 25 -83 4 -28 4 -28 5 5 1 19 -7 54 -18 77
-18 41 -18 42 0 48 10 3 39 1 64 -6 35 -9 57 -23 90 -60 58 -64 123 -191 141
-276 8 -37 35 -165 60 -284 27 -132 66 -281 100 -382 63 -189 72 -235 55 -267
-11 -21 -17 -22 -93 -18 -130 7 -187 46 -242 165 -18 40 -44 87 -58 105 -37
49 -75 131 -69 148 3 8 21 32 40 54 41 46 73 113 103 219 19 63 21 83 12 105
-6 15 -23 55 -38 90 -14 35 -31 89 -36 121 -10 56 -12 59 -49 70 -37 11 -39
13 -34 49 3 31 2 33 -5 12 -5 -14 -9 -21 -10 -17 -1 5 -8 1 -17 -7 -8 -9 -25
-16 -37 -16 -36 0 -125 -47 -193 -100 -58 -47 -64 -55 -74 -106 -20 -93 -30
-176 -30 -244 0 -58 4 -72 35 -122 57 -91 135 -124 253 -108 52 7 52 6 52 -20
0 -44 -52 -105 -115 -135 -74 -37 -184 -46 -238 -20 -32 15 -40 27 -67 96 -37
96 -39 134 -7 150 29 15 87 70 87 83 0 6 -17 -6 -37 -26 -21 -20 -55 -43 -77
-52 -67 -28 -176 -16 -176 19 0 8 27 51 60 96 88 118 127 195 176 342 63 187
109 249 240 318 82 43 97 40 122 -23z m108 -188 c6 0 17 -28 23 -62 7 -35 28
-101 48 -146 l36 -84 -23 -76 c-44 -152 -107 -244 -176 -257 -55 -10 -146 -8
-179 5 -67 25 -123 108 -132 194 -3 32 2 105 12 173 l17 118 52 50 c100 96
211 137 276 103 19 -10 40 -18 46 -18z m-546 -620 c0 -49 41 -143 79 -181 34
-35 90 -59 137 -59 11 0 49 10 85 22 50 17 76 34 122 79 56 56 58 58 67 35 5
-13 22 -34 38 -47 35 -28 72 -92 102 -172 17 -45 31 -64 61 -84 21 -14 39 -27
39 -28 0 -1 -134 0 -297 2 -164 2 -317 1 -341 -4 -26 -5 90 -8 295 -9 342 -1
692 -17 737 -33 18 -7 25 -19 28 -48 9 -73 -17 -267 -68 -514 l-27 -126 -531
-7 c-292 -3 -550 -9 -573 -12 l-42 -6 -7 39 c-5 24 5 156 26 353 34 324 40
350 81 350 10 0 20 4 24 9 9 15 -59 -7 -70 -23 -15 -20 -79 -628 -72 -680 5
-32 3 -46 -7 -49 -22 -8 -24 1 -15 45 6 22 7 48 4 57 -3 10 -47 37 -102 61
-89 41 -94 45 -70 53 15 5 27 13 27 18 0 13 -196 109 -224 109 -17 0 -34 -13
-59 -47 -20 -27 -54 -66 -77 -87 -34 -32 -41 -45 -38 -67 4 -24 2 -26 -13 -19
-46 25 -109 129 -109 180 0 17 34 157 75 310 84 317 116 393 201 477 51 51
139 103 177 103 22 0 21 -5 -3 -38 -12 -16 -29 -69 -40 -122 -36 -179 -71
-630 -52 -680 7 -18 11 9 15 105 25 518 45 655 107 717 26 26 35 28 107 29 43
0 98 4 123 8 78 14 80 14 80 -19z m515 -101 c9 -17 14 -33 11 -36 -4 -4 -36
49 -36 62 0 13 11 2 25 -26z m652 -371 c39 -43 37 -71 -27 -400 -34 -172 -64
-316 -68 -319 -4 -4 -263 -9 -577 -12 -367 -4 -558 -3 -535 3 19 6 274 13 565
16 292 4 533 9 537 13 3 3 15 49 26 101 57 265 86 485 74 555 -7 36 -10 40
-52 51 l-45 12 41 1 c30 1 46 -5 61 -21z m-1567 -513 c0 -2 -10 -9 -22 -15
-22 -11 -22 -10 -4 4 21 17 26 19 26 11z m585 -285 c57 -20 139 -63 149 -78 2
-4 -28 8 -67 28 -40 20 -90 43 -112 52 -57 23 -39 22 30 -2z"/>
<path d="M3185 5288 c8 -21 15 -50 16 -65 0 -15 3 -22 6 -15 8 19 -5 76 -22
98 -13 17 -13 14 0 -18z"/>
<path d="M3115 3053 c15 -32 25 -42 25 -24 0 5 -9 19 -20 32 l-21 24 16 -32z"/>
<path d="M2185 3028 c-10 -43 -42 -107 -69 -136 l-21 -24 -6 39 -6 38 -2 -46
c-1 -39 -5 -48 -28 -59 -16 -7 -66 -16 -113 -20 l-85 -7 80 -1 c61 -2 90 3
116 16 36 18 36 18 63 -5 15 -13 34 -23 43 -23 15 0 15 2 0 18 -29 31 -19 86
27 150 9 13 18 92 11 92 -2 0 -7 -15 -10 -32z m-55 -192 c0 -5 -7 -3 -15 4 -8
7 -12 17 -9 22 7 10 24 -9 24 -26z"/>
<path d="M3408 3013 c7 -3 16 -2 19 1 4 3 -2 6 -13 5 -11 0 -14 -3 -6 -6z"/>
<path d="M3141 3002 c-1 -8 -6 -10 -13 -6 -6 4 -2 -8 10 -28 12 -19 20 -37 17
-40 -3 -3 7 -4 22 -2 29 2 177 63 156 64 -7 0 -38 -11 -70 -25 -73 -33 -95
-30 -110 15 -7 19 -12 29 -12 22z"/>
<path d="M3356 3001 c-4 -5 3 -7 14 -4 23 6 26 13 6 13 -8 0 -17 -4 -20 -9z"/>
<path d="M2367 2899 c-10 -6 -27 -31 -37 -55 -23 -54 -56 -70 -107 -53 -19 6
-37 9 -40 5 -3 -3 8 -8 23 -13 l29 -7 -30 -7 c-23 -5 -17 -7 27 -8 31 0 60 -6
64 -12 9 -14 33 27 34 56 0 12 12 36 28 54 34 41 58 37 126 -21 65 -56 91
-100 111 -192 27 -122 7 -204 -68 -273 -24 -23 -37 -46 -42 -72 -9 -52 -34
-73 -94 -79 l-49 -4 13 38 c19 52 18 223 -1 304 -8 36 -19 87 -24 114 -13 69
-19 68 -13 -2 5 -49 0 -75 -26 -154 -79 -236 -57 -315 84 -306 75 5 109 29
120 85 4 21 23 54 49 82 24 25 47 55 51 66 6 14 11 -4 17 -65 5 -47 17 -163
28 -259 11 -95 20 -205 20 -243 0 -167 -38 -376 -82 -446 -17 -28 -19 -36 -7
-43 12 -8 12 -9 -1 -7 -29 4 -97 -40 -114 -76 -61 -130 47 -531 183 -676 40
-42 53 -50 83 -50 45 0 77 35 107 114 19 52 20 69 14 284 l-6 229 46 139 c68
205 190 690 252 1004 17 84 36 385 23 372 -3 -4 -8 -70 -11 -147 -5 -149 -19
-229 -103 -590 -60 -258 -136 -537 -182 -672 -37 -107 -39 -110 -48 -80 -7 26
-16 33 -47 39 -41 8 -102 37 -94 44 2 2 21 -3 41 -11 68 -29 136 -18 136 21 0
31 -155 104 -222 104 -33 0 -34 1 -8 75 11 33 27 113 36 180 19 141 15 265
-15 530 -11 99 -21 237 -21 307 0 150 -13 198 -74 277 -41 54 -116 111 -145
111 -9 0 -24 -5 -34 -11z m-57 -119 c0 -5 -8 -10 -17 -10 -15 0 -16 2 -3 10
19 12 20 12 20 0z m33 -395 c2 -102 -8 -165 -27 -165 -7 0 -23 11 -36 25 -20
22 -24 35 -23 83 2 49 42 206 61 237 10 15 22 -77 25 -180z m16 66 c1 -70 -6
-44 -12 44 -4 59 -3 69 3 40 5 -22 9 -60 9 -84z m359 -1053 c70 -24 129 -68
118 -86 -29 -47 -256 44 -256 102 0 14 80 4 138 -16z m-82 -68 c27 -22 69 -47
94 -56 90 -32 93 -38 87 -214 -3 -69 -1 -109 3 -90 7 34 7 34 8 5 1 -71 -9
-68 -93 25 -44 49 -95 116 -113 147 -33 59 -72 170 -72 204 0 31 34 23 86 -21z
m-96 14 c0 -32 53 -171 83 -219 18 -27 68 -90 111 -140 43 -49 86 -106 94
-125 20 -48 10 -128 -23 -197 -62 -126 -150 -86 -246 112 -64 133 -99 256
-106 376 -7 109 5 158 44 189 31 24 43 25 43 4z"/>
<path d="M3164 2825 c0 -49 1 -71 3 -48 2 23 2 64 0 90 -2 26 -3 8 -3 -42z"/>
<path d="M3222 2840 c0 -19 2 -27 5 -17 2 9 2 25 0 35 -3 9 -5 1 -5 -18z"/>
<path d="M4253 2843 c26 -2 68 -2 95 0 26 2 4 3 -48 3 -52 0 -74 -1 -47 -3z"/>
<path d="M4408 2843 c7 -3 16 -2 19 1 4 3 -2 6 -13 5 -11 0 -14 -3 -6 -6z"/>
<path d="M4450 2840 c20 -13 80 -13 80 0 0 6 -21 10 -47 10 -35 0 -44 -3 -33
-10z"/>
<path d="M4556 2839 c10 -4 159 -7 329 -7 171 0 301 2 290 4 -45 7 -637 10
-619 3z"/>
<path d="M808 2763 c83 -2 221 -2 305 0 83 1 15 3 -153 3 -168 0 -236 -2 -152
-3z"/>
<path d="M1493 2763 c125 -2 329 -2 455 0 125 1 22 2 -228 2 -250 0 -353 -1
-227 -2z"/>
</g>
</svg>
